HIERARCHY
ROOT Hips
{
	OFFSET 0.000000 0.000000 0.000000
	CHANNELS 6 Xposition Yposition Zposition Xrotation Yrotation Zrotation
	JOINT LeftUpLeg_virtual
	{
		OFFSET 0.000000 0.000000 0.000000
		CHANNELS 3 Xrotation Yrotation Zrotation
		JOINT LeftUpLeg
		{
			OFFSET 15.427100 -6.655098 0.678600
			CHANNELS 3 Xrotation Yrotation Zrotation
			JOINT LeftLeg
			{
				OFFSET 4.081073 -39.591068 13.024000
				CHANNELS 3 Xrotation Yrotation Zrotation
				JOINT LeftFoot
				{
					OFFSET -4.081074 -37.707932 -15.979700
					CHANNELS 3 Xrotation Yrotation Zrotation
					JOINT LeftToeBase
					{
						OFFSET 5.346399 -15.068900 20.645000
						CHANNELS 3 Xrotation Yrotation Zrotation
						JOINT LeftToe_End
						{
							OFFSET 2.754700 0.931300 11.300900
							CHANNELS 3 Xrotation Yrotation Zrotation
							End Site
							{
								OFFSET 0 0 0
							}
						}
					}
				}
			}
		}
	}
	JOINT RightUpLeg_virtual
	{
		OFFSET 0.000000 0.000000 0.000000
		CHANNELS 3 Xrotation Yrotation Zrotation
		JOINT RightUpLeg
		{
			OFFSET -15.569500 -6.655098 0.678600
			CHANNELS 3 Xrotation Yrotation Zrotation
			JOINT RightLeg
			{
				OFFSET -4.081825 -39.591045 13.023800
				CHANNELS 3 Xrotation Yrotation Zrotation
				JOINT RightFoot
				{
					OFFSET 4.081824 -37.707954 -15.979600
					CHANNELS 3 Xrotation Yrotation Zrotation
					JOINT RightToeBase
					{
						OFFSET -5.346400 -15.068900 20.645000
						CHANNELS 3 Xrotation Yrotation Zrotation
						JOINT RightToe_End
						{
							OFFSET -2.754700 0.931300 11.300900
							CHANNELS 3 Xrotation Yrotation Zrotation
							End Site
							{
								OFFSET 0 0 0
							}
						}
					}
				}
			}
		}
	}
	JOINT Spine_virtual
	{
		OFFSET 0.000000 0.000000 0.000000
		CHANNELS 3 Xrotation Yrotation Zrotation
		JOINT Spine
		{
			OFFSET -0.279200 12.230698 -2.892100
			CHANNELS 3 Xrotation Yrotation Zrotation
			JOINT Spine1
			{
				OFFSET -0.232667 10.192268 -1.242267
				CHANNELS 3 Xrotation Yrotation Zrotation
				JOINT Spine1_split
				{
					OFFSET -0.232667 10.192268 -1.242267
					CHANNELS 3 Xrotation Yrotation Zrotation
					JOINT Spine2
					{
						OFFSET -0.232667 10.192268 -1.242267
						CHANNELS 3 Xrotation Yrotation Zrotation
						JOINT Neck_virtual
						{
							OFFSET 0.000000 0.000000 0.000000
							CHANNELS 3 Xrotation Yrotation Zrotation
							JOINT Neck
							{
								OFFSET -0.418800 17.814194 8.416900
								CHANNELS 3 Xrotation Yrotation Zrotation
								JOINT Head
								{
									OFFSET 0.000000 7.031097 3.806800
									CHANNELS 3 Xrotation Yrotation Zrotation
									JOINT HeadTop_End
									{
										OFFSET 0.000000 24.646606 12.978600
										CHANNELS 3 Xrotation Yrotation Zrotation
										End Site
										{
											OFFSET 0 0 0
										}
									}
								}
							}
						}
						JOINT LeftShoulder_virtual
						{
							OFFSET 0.000000 0.000000 0.000000
							CHANNELS 3 Xrotation Yrotation Zrotation
							JOINT LeftShoulder
							{
								OFFSET 8.476499 7.247704 -3.868750
								CHANNELS 3 Xrotation Yrotation Zrotation
								JOINT LeftShoulder_split
								{
									OFFSET 8.476499 7.247704 -3.868750
									CHANNELS 3 Xrotation Yrotation Zrotation
									JOINT LeftArm
									{
										OFFSET 9.308998 -2.777710 0.208600
										CHANNELS 3 Xrotation Yrotation Zrotation
										JOINT LeftForeArm
										{
											OFFSET 29.972298 0.000000 0.000000
											CHANNELS 3 Xrotation Yrotation Zrotation
											JOINT LeftHand
											{
												OFFSET 26.026505 0.000000 0.000000
												CHANNELS 3 Xrotation Yrotation Zrotation
												End Site
												{
													OFFSET 0 0 0
												}
											}
										}
									}
								}
							}
						}
						JOINT RightShoulder_virtual
						{
							OFFSET 0.000000 0.000000 0.000000
							CHANNELS 3 Xrotation Yrotation Zrotation
							JOINT RightShoulder
							{
								OFFSET -7.570500 7.247704 -3.868750
								CHANNELS 3 Xrotation Yrotation Zrotation
								JOINT RightShoulder_split
								{
									OFFSET -7.570500 7.247704 -3.868750
									CHANNELS 3 Xrotation Yrotation Zrotation
									JOINT RightArm
									{
										OFFSET -9.308998 -2.777710 0.208500
										CHANNELS 3 Xrotation Yrotation Zrotation
										JOINT RightForeArm
										{
											OFFSET -29.972300 0.000000 0.000000
											CHANNELS 3 Xrotation Yrotation Zrotation
											JOINT RightHand
											{
												OFFSET -26.026505 0.000000 0.000000
												CHANNELS 3 Xrotation Yrotation Zrotation
												End Site
												{
													OFFSET 0 0 0
												}
											}
										}
									}
								}
							}
						}
					}
				}
			}
		}
	}
}
MOTION
Frames: 6
Frame Time: 0.03333333
0.315225 111.207802 4.572159 0.000000 0.000000 0.000000 -90.807980 -2.074404 1.526235 -4.122739 19.565514 16.251107 3.682238 1.831594 1.412014 23.218581 29.907448 -26.295470 -1.872558 0.000006 0.000008 0.000000 0.000000 0.000000 -90.807980 -2.074404 1.526235 -6.586331 -19.056854 -18.636033 4.913700 -5.227313 -3.849565 33.312530 -30.531034 31.892185 -4.604374 0.000021 -0.000017 0.000000 0.000000 0.000000 -90.807980 -2.074404 1.526235 0.699105 -0.134368 -0.677225 0.841690 0.154199 -0.463160 0.000000 0.000000 0.000000 0.000000 0.000000 0.000000 0.831251 0.158014 -0.488484 -3.902736 4.009047 -8.413908 2.479704 8.403992 -12.879457 0.000000 0.000000 0.000000 0.831251 0.158014 -0.488484 0.834125 -6.730775 -3.480306 0.000000 0.000000 0.000000 44.076573 -39.845855 -34.620924 0.000627 -83.340500 0.000590 0.000000 0.000000 0.000000 0.831251 0.158014 -0.488484 0.483607 4.500680 3.202687 0.000000 0.000000 0.000000 -4.326311 2.268498 83.611508 -179.999950 50.428035 179.999937 0.000000 0.000000 0.000000 
0.316456 111.207924 4.574783 0.000000 0.000000 0.000000 -90.809749 -2.073695 1.528041 -4.123222 19.565475 16.247275 3.689234 1.807827 1.413814 23.216831 29.904962 -26.291208 -1.862403 0.000002 0.000001 0.000000 0.000000 0.000000 -90.809749 -2.073695 1.528041 -6.590234 -19.061149 -18.634129 4.916712 -5.209434 -3.850097 33.310843 -30.531260 31.888852 -4.623019 -0.000001 0.000011 0.000000 0.000000 0.000000 -90.809749 -2.073695 1.528041 0.699070 -0.134409 -0.676669 0.841681 0.154199 -0.463160 0.000000 0.000000 0.000000 0.000000 0.000000 0.000000 0.831241 0.158014 -0.488483 -3.937780 4.024675 -8.413906 2.565396 8.514522 -12.913617 0.000000 0.000000 0.000000 0.831241 0.158014 -0.488483 0.834870 -6.690142 -3.495207 0.000000 0.000000 0.000000 44.105848 -39.875044 -34.542920 0.000142 -83.340500 0.000131 0.000000 0.000000 0.000000 0.831241 0.158014 -0.488483 0.485156 4.473281 3.202567 0.000000 0.000000 0.000000 -4.337904 2.290714 83.617635 -179.999964 50.440093 179.999964 0.000000 0.000000 0.000000 
0.319369 111.209160 4.578194 0.000000 0.000000 0.000000 -90.812426 -2.072559 1.528928 -4.131870 19.579845 16.241317 3.698346 1.782351 1.416769 23.206196 29.899580 -26.285199 -1.833860 0.000002 0.000013 0.000000 0.000000 0.000000 -90.812426 -2.072559 1.528928 -6.594243 -19.082247 -18.632510 4.922181 -5.192782 -3.849125 33.304108 -30.529467 31.881954 -4.673526 0.000026 -0.000034 0.000000 0.000000 0.000000 -90.812426 -2.072559 1.528928 0.699110 -0.134526 -0.675536 0.841705 0.154199 -0.463161 0.000000 0.000000 0.000000 0.000000 0.000000 0.000000 0.835888 0.158014 -0.488483 -4.036192 4.064475 -8.413906 2.850470 8.636296 -13.049387 0.000000 0.000000 0.000000 0.835888 0.158014 -0.488483 0.835477 -6.617841 -3.528196 0.000000 0.000000 0.000000 44.151446 -39.911169 -34.423037 -0.000046 -83.340500 -0.000060 0.000000 0.000000 0.000000 0.835888 0.158014 -0.488483 0.487200 4.436631 3.202407 0.000000 0.000000 0.000000 -4.352109 2.322245 83.628809 179.999991 50.456971 -179.999991 0.000000 0.000000 0.000000 
0.323392 111.211029 4.583061 0.000000 0.000000 0.000000 -90.815630 -2.071088 1.528581 -4.145375 19.604137 16.233778 3.711864 1.755853 1.421172 23.186597 29.892183 -26.278197 -1.790933 0.000001 0.000004 0.000000 0.000000 0.000000 -90.815630 -2.071088 1.528581 -6.602507 -19.111971 -18.639651 4.933696 -5.160919 -3.848001 33.287897 -30.526318 31.868945 -4.750389 0.000001 -0.000031 0.000000 0.000000 0.000000 -90.815630 -2.071088 1.528581 0.699059 -0.134751 -0.673458 0.851509 0.154199 -0.463160 0.000000 0.000000 0.000000 0.000000 0.000000 0.000000 0.847228 0.158014 -0.488483 -4.186792 4.120711 -8.398722 3.319349 8.757722 -13.359933 0.000000 0.000000 0.000000 0.847228 0.158014 -0.488483 0.836087 -6.520415 -3.575785 0.000000 0.000000 0.000000 44.209257 -39.951911 -34.271297 -0.000512 -83.340500 -0.000506 0.000000 0.000000 0.000000 0.847228 0.158014 -0.488483 0.489740 4.391508 3.202211 0.000000 0.000000 0.000000 -4.368897 2.362223 83.641540 -179.999991 50.478233 179.999978 0.000000 0.000000 0.000000 
0.328774 111.213966 4.590393 0.000000 0.000000 0.000000 -90.817200 -2.064954 1.527426 -4.166444 19.634757 16.227198 3.731676 1.708857 1.427299 23.163583 29.882296 -26.276667 -1.737200 0.000018 0.000015 0.000000 0.000000 0.000000 -90.817200 -2.064954 1.527426 -6.624299 -19.148628 -18.646719 4.948417 -5.113562 -3.847563 33.270531 -30.521841 31.851310 -4.848562 -0.000000 0.000002 0.000000 0.000000 0.000000 -90.817200 -2.064954 1.527426 0.699070 -0.134974 -0.661116 0.863144 0.154199 -0.463161 0.000000 0.000000 0.000000 0.000000 0.000000 0.000000 0.860532 0.158014 -0.488483 -4.378069 4.186591 -8.360594 4.210046 8.797239 -14.002555 0.000000 0.000000 0.000000 0.860532 0.158014 -0.488483 0.836788 -6.404464 -3.634534 0.000000 0.000000 0.000000 44.275243 -39.994869 -34.097674 0.000219 -83.340500 0.000225 0.000000 0.000000 0.000000 0.860532 0.158014 -0.488483 0.492925 4.338949 3.198779 0.000000 0.000000 0.000000 -4.387949 2.409566 83.656758 -179.999991 50.503436 179.999978 0.000000 0.000000 0.000000 
0.335205 111.217171 4.602440 0.000000 0.000000 0.000000 -90.818273 -2.058046 1.525805 -4.198875 19.668675 16.225627 3.765107 1.645432 1.434698 23.134734 29.866150 -26.276375 -1.676583 -0.000003 -0.000001 0.000000 0.000000 0.000000 -90.818273 -2.058046 1.525805 -6.652327 -19.189481 -18.657756 4.976886 -5.067589 -3.847496 33.245003 -30.513488 31.828641 -4.963543 -0.000010 0.000003 0.000000 0.000000 0.000000 -90.818273 -2.058046 1.525805 0.699094 -0.135240 -0.647093 0.876000 0.154199 -0.463160 0.000000 0.000000 0.000000 0.000000 0.000000 0.000000 0.874912 0.158014 -0.485780 -4.597586 4.258355 -8.307588 5.585742 8.710374 -14.816396 0.000000 0.000000 0.000000 0.874912 0.158014 -0.485780 0.837664 -6.276426 -3.700999 0.000000 0.000000 0.000000 44.345468 -40.037865 -33.912094 0.000605 -83.340561 0.000577 0.000000 0.000000 0.000000 0.874912 0.158014 -0.485780 0.496801 4.279798 3.190821 0.000000 0.000000 0.000000 -4.409495 2.463284 83.674277 179.999991 50.532041 -179.999991 0.000000 0.000000 0.000000 
